<svg xmlns="http://www.w3.org/2000/svg" viewBox="0 0 79.48 92.04"><defs><style>.a{fill:#fff;}</style></defs><title>biography</title><path class="a" d="M49.7,17.68a11.5,11.5,0,1,0,11.51,11.5A11.54,11.54,0,0,0,49.7,17.68Zm0,4.18a7.32,7.32,0,1,1-7.32,7.32A7.29,7.29,0,0,1,49.7,21.86Z" transform="translate(-9.96 -5.12)"/><path class="a" d="M37.15,42.77a8.4,8.4,0,0,0-8.37,8.37v6.27a2.1,2.1,0,0,0,2.09,2.1H68.53a2.1,2.1,0,0,0,2.09-2.1h0V51.14a8.4,8.4,0,0,0-8.37-8.37Zm0,4.19h25.1a4.13,4.13,0,0,1,4.18,4.18v4.18H33V51.14A4.13,4.13,0,0,1,37.15,47Z" transform="translate(-9.96 -5.12)"/><path class="a" d="M28.78,80.43v4.18H70.62V80.43Z" transform="translate(-9.96 -5.12)"/><path class="a" d="M28.78,67.87v4.19H49.7V67.87Z" transform="translate(-9.96 -5.12)"/><path class="a" d="M53.88,67.87v4.19h4.19V67.87Z" transform="translate(-9.96 -5.12)"/><path class="a" d="M12.05,5.12A2.1,2.1,0,0,0,10,7.21h0V95.07a2.09,2.09,0,0,0,2.09,2.09h75.3a2.09,2.09,0,0,0,2.09-2.09h0V7.21a2.09,2.09,0,0,0-2.09-2.09H12.05Zm2.09,4.19H85.26V93H14.14Z" transform="translate(-9.96 -5.12)"/></svg>