<svg xmlns="http://www.w3.org/2000/svg" viewBox="0 0 94.18 80"><defs><style>.a{fill:#fff;}</style></defs><title>blog</title><path class="a" d="M94.92,12.86a8.29,8.29,0,0,0-6-2.42,8.67,8.67,0,0,0-6,2.42L66.37,29.55H11.57A8.42,8.42,0,0,0,3.17,38V69.44a8.42,8.42,0,0,0,8.4,8.4h2.1v10.5a2.07,2.07,0,0,0,1.26,1.89,3.41,3.41,0,0,0,.84.21,2.19,2.19,0,0,0,1.36-.53L31.2,77.84H68.26a8.42,8.42,0,0,0,8.4-8.4V43L91.88,27.66h0l2.94-2.94A8.32,8.32,0,0,0,94.92,12.86ZM72.46,69.44a4.21,4.21,0,0,1-4.2,4.2H30.46a2.19,2.19,0,0,0-1.36.53L17.87,83.82v-8a2.11,2.11,0,0,0-2.1-2.1h-4.2a4.21,4.21,0,0,1-4.2-4.2V38.05a4.21,4.21,0,0,1,4.2-4.2h50.6l-12.6,12.6H26.26a2.1,2.1,0,1,0,0,4.2H48l-1,6.3H26.26a2.1,2.1,0,0,0,0,4.2H48.31a.93.93,0,0,0,.53-.11h.42l10.39-1.47a2.38,2.38,0,0,0,1.15-.63L72.46,47.29ZM52.61,49.29l6,6-.21.21-7,.94.95-6.92Zm8.93,2.94-6-6,26-26,6,6ZM92,21.78l-1.47,1.47-6-6L86,15.8a4.15,4.15,0,0,1,2.94-1.26,4,4,0,0,1,2.94,1.26A4.1,4.1,0,0,1,92,21.78Z" transform="translate(-3.17 -10.44)"/></svg>