<svg xmlns="http://www.w3.org/2000/svg" viewBox="0 0 84.37 95.52"><defs><style>.a{fill:#fff;}</style></defs><title>competences</title><path class="a" d="M14.76,54H15v41.4H11.8v3.18h9.55A1.59,1.59,0,0,0,22.94,97l1.91-31.55,2.87,31.6a1.59,1.59,0,0,0,1.59,1.45h9.55V95.36H35.64L34.09,39.62V28.49H37.5l8.17-1.17a4.78,4.78,0,0,0,4.08-5.13L48.41,6.07a1.57,1.57,0,0,0-.87-1.29L44.36,3.19a1.58,1.58,0,0,0-1.84.3L39.33,6.67a1.59,1.59,0,0,0,0,2.25l1.12,1.13v6.68l-2.68-.89-.12,0-.1,0a1.84,1.84,0,0,0-.62,0h0l-6.17,1.55H14.61a4.77,4.77,0,0,0-4.74,4.18l-1.24,10a1.5,1.5,0,0,0,0,.2h0V47.82A6.14,6.14,0,0,0,14.76,54Zm24.1-34.4,2.68.89a1.59,1.59,0,0,0,2-1,1.69,1.69,0,0,0,.08-.5V9.39a1.61,1.61,0,0,0-.47-1.13l-.46-.46L44,6.55l1.36.68,1.27,15.22a1.59,1.59,0,0,1-1.36,1.71l-6.36.9Zm-8.1,75.8L26.13,44.27a1.6,1.6,0,0,0-3.19,0L19.85,95.36H18.17V41.23H31l1.5,54.13ZM13,21.93a1.6,1.6,0,0,1,1.58-1.4H30.9a1.31,1.31,0,0,0,.39-.05l4.39-1.09v5.92H30.9V38H18.17V26.9H15v3.18H12ZM11.8,33.27H15V50.78h-.22a3,3,0,0,1-3-3Z" transform="translate(-8.62 -3.02)"/><path class="a" d="M32.5,3H22.94V3.1a5.56,5.56,0,0,0-4.77,5.49v1.59a5.57,5.57,0,1,0,11.14,0V8.59a5.38,5.38,0,0,0-.56-2.39H32.5Zm-6.37,7.16a2.39,2.39,0,0,1-4.78,0V8.59a2.39,2.39,0,1,1,4.78,0Z" transform="translate(-8.62 -3.02)"/><path class="a" d="M81.85,3A11.15,11.15,0,1,0,93,14.16,11.15,11.15,0,0,0,81.85,3Zm0,19.1a8,8,0,1,1,8-8A8,8,0,0,1,81.85,22.12Z" transform="translate(-8.62 -3.02)"/><path class="a" d="M81.85,39.64A11.14,11.14,0,1,0,93,50.78,11.15,11.15,0,0,0,81.85,39.64Zm0,19.1a8,8,0,1,1,8-8A8,8,0,0,1,81.85,58.74Z" transform="translate(-8.62 -3.02)"/><path class="a" d="M81.85,98.54A11.15,11.15,0,1,0,70.7,87.4,11.14,11.14,0,0,0,81.85,98.54Zm0-19.1a8,8,0,1,1-8,8A8,8,0,0,1,81.85,79.44Z" transform="translate(-8.62 -3.02)"/><rect class="a" x="39.58" y="30.88" width="30.41" height="3.18" transform="translate(-16.07 42.93) rotate(-42.88)"/><rect class="a" x="35.02" y="46.17" width="22.29" height="3.18"/><rect class="a" x="53.19" y="55.72" width="3.18" height="31.52" transform="translate(-43.11 56.65) rotate(-45)"/></svg>