<svg xmlns="http://www.w3.org/2000/svg" viewBox="0 0 71.29 96.67"><defs><style>.a{fill:#fff;}</style></defs><title>contact</title><path class="a" d="M20.81,31.4H47.4l7.1,5.74a2.13,2.13,0,0,0,.9.3.93.93,0,0,0,.61-.15,1.74,1.74,0,0,0,.9-1.36V13.27a1.43,1.43,0,0,0-1.51-1.51H20.81a1.43,1.43,0,0,0-1.51,1.51V29.89A1.43,1.43,0,0,0,20.81,31.4Zm1.51-16.62H54v18l-5.13-4.08a2.17,2.17,0,0,0-.91-.3H22.32Z" transform="translate(-15.53 -2.7)"/><path class="a" d="M45,8.74a1.42,1.42,0,0,0,1.51-1.51V5.72H79.72V19.31H61.59a1.51,1.51,0,0,0,0,3H81.23a1.42,1.42,0,0,0,1.51-1.51V4.21A1.42,1.42,0,0,0,81.23,2.7H45a1.42,1.42,0,0,0-1.51,1.51v3A1.42,1.42,0,0,0,45,8.74Z" transform="translate(-15.53 -2.7)"/><circle class="a" cx="22.66" cy="18.88" r="2.27"/><circle class="a" cx="15.1" cy="18.88" r="2.27"/><circle class="a" cx="30.21" cy="18.88" r="2.27"/><circle class="a" cx="48.33" cy="9.82" r="2.27"/><circle class="a" cx="55.89" cy="9.82" r="2.27"/><rect class="a" x="33.98" y="87.6" width="3.02" height="3.02"/><path class="a" d="M77.91,69.76l2.41,1.66A24.8,24.8,0,0,0,82,68.86l-2.57-1.51C79,68.25,78.36,69,77.91,69.76Z" transform="translate(-15.53 -2.7)"/><path class="a" d="M18.85,66.14l1.36,2.72,2.57-1.51c-.46-.76-.91-1.67-1.36-2.57Z" transform="translate(-15.53 -2.7)"/><path class="a" d="M76.25,25.81l-2.12,2.11a27.34,27.34,0,0,1,2,2.12l2.26-2A29.07,29.07,0,0,0,76.25,25.81Z" transform="translate(-15.53 -2.7)"/><path class="a" d="M23.83,74,26,76.26l2.11-2.12a25.16,25.16,0,0,1-2-2.11Z" transform="translate(-15.53 -2.7)"/><path class="a" d="M83.19,45.29l3-.6a17.55,17.55,0,0,0-.75-3l-2.87.75A25.08,25.08,0,0,1,83.19,45.29Z" transform="translate(-15.53 -2.7)"/><path class="a" d="M79.27,34.72c.45.76.9,1.66,1.36,2.57l2.72-1.36a24.73,24.73,0,0,0-1.52-2.72Z" transform="translate(-15.53 -2.7)"/><path class="a" d="M81.83,62.21l2.87,1.06c.31-.91.61-2,.91-3l-2.87-.76Z" transform="translate(-15.53 -2.7)"/><path class="a" d="M20.51,40,17.64,39c-.3.91-.6,2-.9,3l2.86.76Z" transform="translate(-15.53 -2.7)"/><path class="a" d="M18.7,48.31l-3-.3a20.44,20.44,0,0,0-.15,3h3A16.6,16.6,0,0,1,18.7,48.31Z" transform="translate(-15.53 -2.7)"/><path class="a" d="M19,56.77l-3,.46c.15,1.05.45,2,.6,3l2.87-.76A20.76,20.76,0,0,0,19,56.77Z" transform="translate(-15.53 -2.7)"/><path class="a" d="M83.8,51a18.34,18.34,0,0,1-.15,2.87l3,.3A22.36,22.36,0,0,0,86.82,51h-3Z" transform="translate(-15.53 -2.7)"/><path class="a" d="M70.66,39H31.39a1.42,1.42,0,0,0-1.51,1.51v57.4a1.43,1.43,0,0,0,1.51,1.51H70.66a1.43,1.43,0,0,0,1.51-1.51V40.46A1.43,1.43,0,0,0,70.66,39Zm-1.51,57.4H32.9V42H69.15Z" transform="translate(-15.53 -2.7)"/><path class="a" d="M37.43,87.28H64.62a1.43,1.43,0,0,0,1.51-1.51V46.5A1.43,1.43,0,0,0,64.62,45H37.43a1.43,1.43,0,0,0-1.51,1.51V85.77A1.42,1.42,0,0,0,37.43,87.28ZM38.94,48H63.11V84.26H38.94Z" transform="translate(-15.53 -2.7)"/></svg>