<svg xmlns="http://www.w3.org/2000/svg" viewBox="0 0 56.89 38.73"><defs><style>.a{fill:#fff;}</style></defs><title>cv</title><path class="a" d="M70.33,9.21H20.42a3.49,3.49,0,0,0-3.49,3.49V44.45a3.49,3.49,0,0,0,3.49,3.49H70.33a3.49,3.49,0,0,0,3.49-3.49V12.7A3.49,3.49,0,0,0,70.33,9.21Zm.81,35.24a.8.8,0,0,1-.81.8H20.42a.79.79,0,0,1-.8-.8V12.7a.8.8,0,0,1,.8-.81H70.33a.81.81,0,0,1,.81.81Z" transform="translate(-16.93 -9.21)"/><rect class="a" x="30.77" y="11" width="16.64" height="2.68"/><rect class="a" x="30.77" y="17.26" width="16.64" height="2.68"/><rect class="a" x="30.77" y="23.52" width="16.64" height="2.68"/><circle class="a" cx="12.79" cy="15.12" r="3.31"/><path class="a" d="M30.8,29.15h-2c-1.88,0-3.4.9-3.4,2.06v3.4H34.2v-3.4C34.2,30.05,32.68,29.15,30.8,29.15Z" transform="translate(-16.93 -9.21)"/></svg>