<svg xmlns="http://www.w3.org/2000/svg" viewBox="0 0 79.63 40.66"><defs><style>.a{fill:#fff;}</style></defs><title>email</title><path class="a" d="M35.14,8.27a7.67,7.67,0,0,0-7.62,7.63V41.31a7.67,7.67,0,0,0,7.62,7.63H75.81a7.67,7.67,0,0,0,7.62-7.63V15.9a7.67,7.67,0,0,0-7.62-7.63Zm0,5.09H75.81a2.48,2.48,0,0,1,2.54,2.54V41.31a2.48,2.48,0,0,1-2.54,2.54H35.14a2.48,2.48,0,0,1-2.54-2.54V15.9A2.48,2.48,0,0,1,35.14,13.36ZM6.34,15.9a2.54,2.54,0,0,0,0,5.08H23.28a2.54,2.54,0,0,0,0-5.08Zm33,.79A2.52,2.52,0,0,0,37,18.41a2.61,2.61,0,0,0,.64,2.68l7.91,7.83-7.84,7.13a2.55,2.55,0,0,0,3.45,3.75l8-7.28,2,2a6.16,6.16,0,0,0,8.73,0l2-2,8,7.3a2.54,2.54,0,1,0,3.44-3.75l-7.84-7.13,7.92-7.83a2.56,2.56,0,1,0-3.6-3.63L56.27,30.86a1.66,1.66,0,0,1-1.56,0L41.21,17.46a2.94,2.94,0,0,0-1.83-.77ZM9.73,26.06a2.55,2.55,0,0,0,0,5.09H23.28a2.55,2.55,0,0,0,0-5.09Zm3.39,10.17a2.54,2.54,0,0,0,0,5.08H23.28a2.54,2.54,0,0,0,0-5.08Z" transform="translate(-3.8 -8.27)"/></svg>