<svg xmlns="http://www.w3.org/2000/svg" viewBox="0 0 74.28 99.04"><defs><style>.a{fill:#fff;}</style></defs><title>experience</title><path class="a" d="M11.86,80V97.22a3.1,3.1,0,0,0,3.1,3.1H83a3.1,3.1,0,0,0,3.1-3.1V80A3.09,3.09,0,0,0,83,76.9H73a32.08,32.08,0,1,0-49.52,0H15A3.09,3.09,0,0,0,11.86,80Zm7.43-23.45A28.93,28.93,0,1,1,69.73,75.88a22.33,22.33,0,0,0-9.6-4.29c-3.4-.61-3.87-4.85-3.87-5V66.2a25.93,25.93,0,0,0,5.41-10.3,17.05,17.05,0,0,0,.62-4.44,14.39,14.39,0,0,0-.14-2,11.23,11.23,0,0,0,.62-7.74A2.54,2.54,0,0,0,59.93,40c-1.69.17-5.35-1-7.28-1.75-7.93-3.4-13.63.46-15.83,3.29-3.4,1.49-4,5.75-3.74,9.34v.59A24.07,24.07,0,0,0,38.72,66.5a7.89,7.89,0,0,0,.63.66c-.25,1.23-1.11,3.93-3.74,4.41a22.46,22.46,0,0,0-9.21,4A28.68,28.68,0,0,1,19.29,56.54ZM41,57.37a1.69,1.69,0,0,0,.55-.06c.68-.19,1.16-.32,2.93-5a14.87,14.87,0,0,0,11.76,2.15l.16,0A13.51,13.51,0,0,0,59.06,53a14.82,14.82,0,0,1-.4,2.11A21.32,21.32,0,0,1,52.2,65.78c-3.25,2.67-8.14,2.09-11.13-1.33a20.26,20.26,0,0,1-3.87-7Zm-4.27-3c-.7-3.52-1-9.15,1.63-10.06a1.55,1.55,0,0,0,.78-.6A9.43,9.43,0,0,1,46.55,40a12.14,12.14,0,0,1,4.88,1.09h0c.56.22,5.32,2.09,8.37,2,.51,2.45.37,6.3-4.57,8.33a11.61,11.61,0,0,1-10.47-2.89,1.55,1.55,0,0,0-2.19,0,1.43,1.43,0,0,0-.36.59c-.68,1.87-1.55,4.07-2,5.09Zm5.29,15a10.49,10.49,0,0,0,2.46.94,14.52,14.52,0,0,0,6.81,0,10,10,0,0,0,2.47-.94,7.66,7.66,0,0,0,5.89,5.38,20.74,20.74,0,0,1,6.1,2.2H30a21,21,0,0,1,6.12-2.21A7.65,7.65,0,0,0,42,69.29ZM83,80V97.22H15V80Z" transform="translate(-11.86 -1.28)"/><path class="a" d="M50.55,18.3V2.83a1.55,1.55,0,1,0-3.1,0V18.3a1.55,1.55,0,0,0,3.1,0Z" transform="translate(-11.86 -1.28)"/><path class="a" d="M28.77,27.72a1.55,1.55,0,0,0,1.09-2.64L19.18,14.43A1.55,1.55,0,0,0,17,16.62L27.67,27.3A1.55,1.55,0,0,0,28.77,27.72Z" transform="translate(-11.86 -1.28)"/><path class="a" d="M70.32,27.27,81,16.59a1.55,1.55,0,0,0-2.18-2.16L68.14,25.11a1.55,1.55,0,0,0,2.19,2.19Z" transform="translate(-11.86 -1.28)"/></svg>