<svg xmlns="http://www.w3.org/2000/svg" viewBox="0 0 90 90"><defs><style>.a{fill:#fff;}</style></defs><title>look</title><path class="a" d="M5.78,48.57a3,3,0,0,0,0,4c.8.89,20,21.74,44.22,21.74S93.42,53.48,94.22,52.59a3,3,0,0,0,0-4c-.8-.89-20-21.74-44.22-21.74S6.58,47.68,5.78,48.57ZM50,66.79A16.21,16.21,0,1,1,66.21,50.58,16.21,16.21,0,0,1,50,66.79Zm-17.36-30a22.13,22.13,0,0,0,0,27.64,74.29,74.29,0,0,1-20.4-13.82A74.29,74.29,0,0,1,32.64,36.76ZM67.36,64.4a22.13,22.13,0,0,0,0-27.64,74.29,74.29,0,0,1,20.4,13.82A74.29,74.29,0,0,1,67.36,64.4Z" transform="translate(-5 -5.58)"/><circle class="a" cx="45" cy="45" r="9.64"/><path class="a" d="M52.51,16.25V8.08a2.5,2.5,0,1,0-5,0v8.17a2.5,2.5,0,0,0,5,0Z" transform="translate(-5 -5.58)"/><path class="a" d="M76,24.93a2.51,2.51,0,0,0,3.24-1.42l3-7.65A2.5,2.5,0,1,0,77.59,14l-3,7.65A2.5,2.5,0,0,0,76,24.93Z" transform="translate(-5 -5.58)"/><path class="a" d="M24,24.93a2.5,2.5,0,0,0,1.42-3.24h0l-3-7.65a2.5,2.5,0,0,0-4.66,1.82l3,7.65A2.49,2.49,0,0,0,24,24.93Z" transform="translate(-5 -5.58)"/><path class="a" d="M47.51,84.91v8.17a2.5,2.5,0,0,0,5,0V84.91a2.5,2.5,0,0,0-5,0Z" transform="translate(-5 -5.58)"/><path class="a" d="M76,76.23a2.5,2.5,0,0,0-1.42,3.24h0l3,7.65a2.5,2.5,0,0,0,4.65-1.82l-3-7.65A2.51,2.51,0,0,0,76,76.23Z" transform="translate(-5 -5.58)"/><path class="a" d="M20.76,77.65l-3,7.65a2.5,2.5,0,1,0,4.66,1.82l3-7.65a2.5,2.5,0,1,0-4.65-1.83Z" transform="translate(-5 -5.58)"/></svg>