<svg xmlns="http://www.w3.org/2000/svg" viewBox="0 0 96.74 96.74"><defs><style>.a{fill:#fff;}</style></defs><title>portfolio</title><path class="a" d="M8.08,91.73h6.45v6.45a1.61,1.61,0,0,0,1.61,1.61H90.31a1.61,1.61,0,0,0,1.61-1.61V24a1.61,1.61,0,0,0-1.61-1.61H82.25V11.11a8.07,8.07,0,0,0-16.13,0V22.4H50V11.11a8.06,8.06,0,0,0-16.12,0V22.4H25.82A1.62,1.62,0,0,0,24.2,24V38.52H16.14A6.45,6.45,0,0,0,9.69,45V78.83H3.24a1.61,1.61,0,0,0-1.61,1.61v4.84A6.45,6.45,0,0,0,8.08,91.73Zm9.67,0h29a6.44,6.44,0,0,0,6.44-6.45V74h12.9a6.45,6.45,0,0,0,6.45-6.45V56.26H79v33.1l-6.45,5.38V75.61H69.35v21H17.75ZM62.9,67.54V45a6.45,6.45,0,0,0-6.45-6.45h-21V36.91a3.22,3.22,0,0,1,3.22-3.22H70.24a6.3,6.3,0,0,0-.89,3.22V67.54a3.23,3.23,0,1,1-6.45,0ZM59.67,45V67.54a6.44,6.44,0,0,0,.9,3.23H53.22V45a3.23,3.23,0,0,1,6.45,0Zm29,49.77-6.44-5.38V56.26h6.44Zm-8.06-2.53,5.22,4.36H75.41ZM69.35,11.11a4.84,4.84,0,0,1,9.67,0V22.4H69.35Zm-32.25,0a4.84,4.84,0,0,1,9.68,0V22.4H37.1ZM27.43,25.63H88.69V53H72.57V36.91a3.23,3.23,0,0,1,6.45,0v12.9h3.23V36.91a6.45,6.45,0,0,0-6.45-6.45H38.71a6.45,6.45,0,0,0-6.45,6.45v1.61H27.43ZM12.92,45a3.22,3.22,0,0,1,3.22-3.22H50.9A6.4,6.4,0,0,0,50,45V85.28a3.23,3.23,0,0,1-6.45,0V80.44a1.61,1.61,0,0,0-1.61-1.61h-29ZM4.86,82.06H40.33v3.22a6.27,6.27,0,0,0,.86,3.22H8.08a3.22,3.22,0,0,1-3.22-3.22Z" transform="translate(-1.63 -3.05)"/><rect class="a" x="38.69" y="6.45" width="3.22" height="3.22"/><rect class="a" x="38.69" y="12.9" width="3.22" height="3.22"/><rect class="a" x="70.94" y="6.45" width="3.22" height="3.22"/><rect class="a" x="70.94" y="12.9" width="3.22" height="3.22"/><path class="a" d="M19.37,69.16H43.55a1.61,1.61,0,0,0,1.61-1.62V48.2a1.61,1.61,0,0,0-1.61-1.61H19.37a1.62,1.62,0,0,0-1.62,1.61V67.54A1.62,1.62,0,0,0,19.37,69.16ZM21,65.93V65l6.45-6.45,5.31,5.31a1.61,1.61,0,0,0,2.28,0l3.69-3.7,3.23,3.23v2.55Zm21-16.12v9l-2.09-2.09a1.61,1.61,0,0,0-2.28,0l-3.69,3.7-5.31-5.31a1.61,1.61,0,0,0-2.28,0L21,60.43V49.81Z" transform="translate(-1.63 -3.05)"/><rect class="a" x="30.63" y="49.98" width="3.22" height="3.22"/><rect class="a" x="16.12" y="69.33" width="3.22" height="3.22"/><rect class="a" x="22.57" y="69.33" width="20.96" height="3.22"/><path class="a" d="M14.53,35.3h3.22V32.07H14.53A11.31,11.31,0,0,0,3.24,43.36V65.93H6.47V43.36A8.06,8.06,0,0,1,14.53,35.3Z" transform="translate(-1.63 -3.05)"/><rect class="a" x="93.51" y="46.76" width="3.22" height="33.86"/><rect class="a" x="93.51" y="83.84" width="3.22" height="3.22"/></svg>